<mxfile host="app.diagrams.net" agent="Mozilla/5.0 (Windows NT 10.0; Win64; x64) AppleWebKit/537.36 (KHTML, like Gecko) Chrome/140.0.0.0 Safari/537.36" version="28.2.5">
  <diagram name="PÃ¡gina-1" id="I2dQohfjC5Hd8kVMXi4x">
    <mxGraphModel dx="1426" dy="785" grid="1" gridSize="10" guides="1" tooltips="1" connect="1" arrows="1" fold="1" page="1" pageScale="1" pageWidth="1654" pageHeight="2336" math="0" shadow="0">
      <root>
        <mxCell id="0" />
        <mxCell id="1" parent="0" />
        <mxCell id="1FPxHmWZ5ht5fRr-nW28-1" value="Filme" style="whiteSpace=wrap;html=1;align=center;" parent="1" vertex="1">
          <mxGeometry x="320" y="290" width="100" height="40" as="geometry" />
        </mxCell>
        <mxCell id="1FPxHmWZ5ht5fRr-nW28-2" value="" style="endArrow=none;html=1;rounded=0;entryX=0.5;entryY=1;entryDx=0;entryDy=0;exitX=0.17;exitY=-0.05;exitDx=0;exitDy=0;exitPerimeter=0;" parent="1" source="1FPxHmWZ5ht5fRr-nW28-1" target="1FPxHmWZ5ht5fRr-nW28-3" edge="1">
          <mxGeometry relative="1" as="geometry">
            <mxPoint x="360" y="290" as="sourcePoint" />
            <mxPoint x="370" y="230" as="targetPoint" />
          </mxGeometry>
        </mxCell>
        <mxCell id="1FPxHmWZ5ht5fRr-nW28-3" value="&lt;span id=&quot;docs-internal-guid-ebaa7406-7fff-df21-6a28-34f55d43d8de&quot;&gt;&lt;span style=&quot;font-size: 12pt; font-family: Calibri, sans-serif; background-color: transparent; font-variant-numeric: normal; font-variant-east-asian: normal; font-variant-alternates: normal; font-variant-position: normal; font-variant-emoji: normal; text-decoration-skip-ink: none; vertical-align: baseline; white-space-collapse: preserve;&quot;&gt;Codigo&lt;/span&gt;&lt;/span&gt;" style="ellipse;whiteSpace=wrap;html=1;align=center;fontStyle=4;" parent="1" vertex="1">
          <mxGeometry x="230" y="150" width="100" height="40" as="geometry" />
        </mxCell>
        <mxCell id="1FPxHmWZ5ht5fRr-nW28-4" value="" style="endArrow=none;html=1;rounded=0;entryX=0.79;entryY=0.875;entryDx=0;entryDy=0;entryPerimeter=0;exitX=0;exitY=0.25;exitDx=0;exitDy=0;" parent="1" source="1FPxHmWZ5ht5fRr-nW28-1" target="1FPxHmWZ5ht5fRr-nW28-6" edge="1">
          <mxGeometry relative="1" as="geometry">
            <mxPoint x="245" y="280" as="sourcePoint" />
            <mxPoint x="189" y="229" as="targetPoint" />
          </mxGeometry>
        </mxCell>
        <mxCell id="1FPxHmWZ5ht5fRr-nW28-6" value="&lt;span style=&quot;font-size:12.0pt;font-family:&amp;quot;Calibri&amp;quot;,sans-serif;&lt;br/&gt;mso-fareast-font-family:Calibri;mso-ansi-language:PT;mso-fareast-language:PT;&lt;br/&gt;mso-bidi-language:AR-SA&quot;&gt;Titulo&lt;/span&gt;" style="ellipse;whiteSpace=wrap;html=1;align=center;" parent="1" vertex="1">
          <mxGeometry x="120" y="170" width="100" height="40" as="geometry" />
        </mxCell>
        <mxCell id="yfIUrhoMjeoyV1aitQ_c-1" value="" style="endArrow=none;html=1;rounded=0;entryX=1;entryY=0.5;entryDx=0;entryDy=0;exitX=0;exitY=0.5;exitDx=0;exitDy=0;" edge="1" parent="1" target="yfIUrhoMjeoyV1aitQ_c-2" source="1FPxHmWZ5ht5fRr-nW28-1">
          <mxGeometry relative="1" as="geometry">
            <mxPoint x="320" y="410" as="sourcePoint" />
            <mxPoint x="189" y="339" as="targetPoint" />
          </mxGeometry>
        </mxCell>
        <mxCell id="yfIUrhoMjeoyV1aitQ_c-2" value="&lt;span style=&quot;font-size:12.0pt;font-family:&amp;quot;Calibri&amp;quot;,sans-serif;&amp;lt;br/&amp;gt;mso-fareast-font-family:Calibri;mso-ansi-language:PT;mso-fareast-language:PT;&amp;lt;br/&amp;gt;mso-bidi-language:AR-SA&quot;&gt;Ano&lt;/span&gt;" style="ellipse;whiteSpace=wrap;html=1;align=center;" vertex="1" parent="1">
          <mxGeometry x="80" y="240" width="100" height="40" as="geometry" />
        </mxCell>
        <mxCell id="yfIUrhoMjeoyV1aitQ_c-3" value="" style="endArrow=none;html=1;rounded=0;entryX=1;entryY=0.5;entryDx=0;entryDy=0;exitX=0;exitY=0.75;exitDx=0;exitDy=0;" edge="1" parent="1" target="yfIUrhoMjeoyV1aitQ_c-4" source="1FPxHmWZ5ht5fRr-nW28-1">
          <mxGeometry relative="1" as="geometry">
            <mxPoint x="510" y="390" as="sourcePoint" />
            <mxPoint x="379" y="409" as="targetPoint" />
          </mxGeometry>
        </mxCell>
        <mxCell id="yfIUrhoMjeoyV1aitQ_c-4" value="&lt;span id=&quot;docs-internal-guid-3716849f-7fff-76ab-c086-65439337c8c7&quot;&gt;&lt;span style=&quot;font-size: 12pt; font-family: Calibri, sans-serif; background-color: transparent; font-variant-numeric: normal; font-variant-east-asian: normal; font-variant-alternates: normal; font-variant-position: normal; font-variant-emoji: normal; vertical-align: baseline; white-space-collapse: preserve;&quot;&gt;Direcao&lt;/span&gt;&lt;/span&gt;" style="ellipse;whiteSpace=wrap;html=1;align=center;" vertex="1" parent="1">
          <mxGeometry x="70" y="310" width="100" height="40" as="geometry" />
        </mxCell>
        <mxCell id="yfIUrhoMjeoyV1aitQ_c-5" value="Ator" style="whiteSpace=wrap;html=1;align=center;" vertex="1" parent="1">
          <mxGeometry x="330" y="590" width="100" height="40" as="geometry" />
        </mxCell>
        <mxCell id="yfIUrhoMjeoyV1aitQ_c-6" value="" style="endArrow=none;html=1;rounded=0;entryX=1;entryY=0;entryDx=0;entryDy=0;exitX=0.13;exitY=1.025;exitDx=0;exitDy=0;exitPerimeter=0;" edge="1" parent="1" source="yfIUrhoMjeoyV1aitQ_c-5" target="yfIUrhoMjeoyV1aitQ_c-7">
          <mxGeometry relative="1" as="geometry">
            <mxPoint x="330" y="838" as="sourcePoint" />
            <mxPoint x="273" y="740" as="targetPoint" />
          </mxGeometry>
        </mxCell>
        <mxCell id="yfIUrhoMjeoyV1aitQ_c-7" value="&lt;span id=&quot;docs-internal-guid-a73db363-7fff-aaf4-fc42-38332b3d3cb4&quot;&gt;&lt;span style=&quot;font-size: 12pt; font-family: Calibri, sans-serif; background-color: transparent; font-variant-numeric: normal; font-variant-east-asian: normal; font-variant-alternates: normal; font-variant-position: normal; font-variant-emoji: normal; text-decoration-skip-ink: none; vertical-align: baseline; white-space-collapse: preserve;&quot;&gt;NContribuinte&lt;/span&gt;&lt;/span&gt;" style="ellipse;whiteSpace=wrap;html=1;align=center;fontStyle=4;" vertex="1" parent="1">
          <mxGeometry x="190" y="730" width="100" height="40" as="geometry" />
        </mxCell>
        <mxCell id="yfIUrhoMjeoyV1aitQ_c-8" value="" style="endArrow=none;html=1;rounded=0;entryX=1;entryY=0.5;entryDx=0;entryDy=0;exitX=0;exitY=1;exitDx=0;exitDy=0;" edge="1" parent="1" source="yfIUrhoMjeoyV1aitQ_c-5" target="yfIUrhoMjeoyV1aitQ_c-9">
          <mxGeometry relative="1" as="geometry">
            <mxPoint x="270" y="880" as="sourcePoint" />
            <mxPoint x="139" y="809" as="targetPoint" />
          </mxGeometry>
        </mxCell>
        <mxCell id="yfIUrhoMjeoyV1aitQ_c-9" value="&lt;span id=&quot;docs-internal-guid-1d997552-7fff-d104-3208-8e50818a9966&quot;&gt;&lt;span style=&quot;font-size: 12pt; font-family: Calibri, sans-serif; background-color: transparent; font-variant-numeric: normal; font-variant-east-asian: normal; font-variant-alternates: normal; font-variant-position: normal; font-variant-emoji: normal; vertical-align: baseline; white-space-collapse: preserve;&quot;&gt;DataNascimento&lt;/span&gt;&lt;/span&gt;" style="ellipse;whiteSpace=wrap;html=1;align=center;" vertex="1" parent="1">
          <mxGeometry x="80" y="700" width="110" height="40" as="geometry" />
        </mxCell>
        <mxCell id="yfIUrhoMjeoyV1aitQ_c-10" value="" style="endArrow=none;html=1;rounded=0;exitX=0.25;exitY=1;exitDx=0;exitDy=0;" edge="1" parent="1" source="yfIUrhoMjeoyV1aitQ_c-5" target="yfIUrhoMjeoyV1aitQ_c-11">
          <mxGeometry relative="1" as="geometry">
            <mxPoint x="380" y="632" as="sourcePoint" />
            <mxPoint x="139" y="919" as="targetPoint" />
          </mxGeometry>
        </mxCell>
        <mxCell id="yfIUrhoMjeoyV1aitQ_c-11" value="&lt;span id=&quot;docs-internal-guid-53c1e11a-7fff-c2b4-9d5b-19d702ea0151&quot;&gt;&lt;span style=&quot;font-size: 12pt; font-family: Calibri, sans-serif; background-color: transparent; font-variant-numeric: normal; font-variant-east-asian: normal; font-variant-alternates: normal; font-variant-position: normal; font-variant-emoji: normal; vertical-align: baseline; white-space-collapse: preserve;&quot;&gt;Nome&lt;/span&gt;&lt;/span&gt;" style="ellipse;whiteSpace=wrap;html=1;align=center;" vertex="1" parent="1">
          <mxGeometry x="290" y="760" width="100" height="40" as="geometry" />
        </mxCell>
        <mxCell id="yfIUrhoMjeoyV1aitQ_c-12" value="" style="endArrow=none;html=1;rounded=0;entryX=1;entryY=0.5;entryDx=0;entryDy=0;exitX=0;exitY=0.75;exitDx=0;exitDy=0;" edge="1" parent="1" source="yfIUrhoMjeoyV1aitQ_c-5" target="yfIUrhoMjeoyV1aitQ_c-13">
          <mxGeometry relative="1" as="geometry">
            <mxPoint x="270" y="900" as="sourcePoint" />
            <mxPoint x="329" y="989" as="targetPoint" />
          </mxGeometry>
        </mxCell>
        <mxCell id="yfIUrhoMjeoyV1aitQ_c-13" value="&lt;span id=&quot;docs-internal-guid-3716849f-7fff-76ab-c086-65439337c8c7&quot;&gt;&lt;span style=&quot;font-size: 12pt; font-family: Calibri, sans-serif; background-color: transparent; font-variant-numeric: normal; font-variant-east-asian: normal; font-variant-alternates: normal; font-variant-position: normal; font-variant-emoji: normal; vertical-align: baseline; white-space-collapse: preserve;&quot;&gt;Direcao&lt;/span&gt;&lt;/span&gt;" style="ellipse;whiteSpace=wrap;html=1;align=center;" vertex="1" parent="1">
          <mxGeometry x="60" y="640" width="100" height="40" as="geometry" />
        </mxCell>
      </root>
    </mxGraphModel>
  </diagram>
</mxfile>
